<svg width="512" height="512" viewBox="0 0 512 512" fill="none" xmlns="http://www.w3.org/2000/svg">
<g clip-path="url(#clip0_2633_8457)">
<path fill-rule="evenodd" clip-rule="evenodd" d="M443.221 27.4279C445.511 22.5062 447.811 17.5614 450.214 12.3903C448.39 12.0988 446.649 11.7905 444.958 11.4912L444.957 11.491C441.322 10.8473 437.922 10.2452 434.434 9.9413C424.207 9.06392 413.99 8.11109 403.773 7.15817C378.341 4.78632 352.903 2.4139 327.276 1.20285C245.929 -2.6237 166.685 2.35777 91.9371 20.7948C68.9195 26.472 48.8556 34.4451 29.3238 44.0463C255.136 56.667 403.913 54.0788 468.894 49.2783C459.079 47.7094 449.468 46.1618 439.758 44.5982L435.552 43.9211C438.135 38.3605 440.611 33.0373 443.099 27.6911L443.138 27.6055L443.221 27.4279ZM51.5706 360.759C93.6676 380.365 141.592 387.309 193.535 386.418C212.481 386.084 231.986 383.399 249.815 379.837C272.327 375.328 273.977 365.449 254.126 358.352C244.148 354.788 233.33 351.867 222.507 348.944L222.507 348.944L222.507 348.944L222.506 348.944C217.569 347.611 212.631 346.278 207.771 344.883C189.224 339.553 170.677 334.21 152.689 327.322L152.879 327.31L152.885 327.309L152.891 327.309L152.897 327.309C180.901 325.449 208.905 323.589 236.909 321.743C236.949 321.395 236.996 321.047 237.042 320.699C237.089 320.351 237.135 320.003 237.175 319.655C229.299 318.292 221.422 316.928 213.253 315.509C231.694 305.421 230.709 297.684 207.984 290.629C196.46 287.058 184.307 284.058 172.145 281.055C163.077 278.817 154.005 276.577 145.185 274.099C141.574 273.085 137.935 272.084 134.292 271.081L134.287 271.08C117.524 266.468 100.656 261.826 85.9241 255.815C43.1885 238.379 46.5147 220.763 63.5451 198.848C69.4525 191.25 67.4036 188.62 51.2513 187.771C44.3327 187.41 37.4939 186.63 30.7084 185.823C28.3667 185.545 25.4662 184.849 24.2688 183.875C3.69923 166.983 5.53532 144.817 29.5641 128.523C63.1193 105.786 108.835 91.9546 158.809 81.5742C267.99 58.8932 378.288 60.4934 489.119 77.9843C489.573 78.058 489.982 78.2187 490.785 78.5346C491.345 78.7549 492.097 79.0508 493.19 79.4453C484.845 92.9735 476.436 106.614 468.122 120.103C462.12 129.84 456.167 139.498 450.321 148.977C443.959 147.099 437.744 145.125 431.569 143.163L431.567 143.163C417.934 138.832 404.498 134.564 390.103 131.528C355.404 124.195 318.868 122.358 282.466 128.523C281.363 128.709 280.232 128.893 279.086 129.08L279.084 129.08C267.577 130.95 254.496 133.077 253.407 140.795C252.302 148.652 265.003 151.993 276.213 154.942L276.214 154.942C276.876 155.116 277.533 155.289 278.181 155.461C291.955 159.134 305.912 162.609 319.869 166.084L319.872 166.085L319.873 166.085L319.873 166.085C331.881 169.075 343.888 172.064 355.776 175.179C359.133 176.056 361.828 177.615 364.519 179.171L364.52 179.172C365.753 179.885 366.987 180.598 368.283 181.245C367.431 181.858 366.58 182.47 365.755 183.068C352.064 183.583 338.38 184.098 324.696 184.613C311.011 185.128 297.327 185.643 283.636 186.157C287.255 187.09 291.348 187.339 295.413 187.587C303.422 188.075 311.322 188.556 315.276 194.242C314.164 194.577 313.105 194.887 312.088 195.186C309.768 195.866 307.667 196.481 305.669 197.178C292.098 201.895 289.304 209.186 301.971 214.516C313.629 219.407 327.343 223.062 340.875 226.667L340.875 226.667L340.876 226.667L340.876 226.668L340.887 226.671L340.911 226.677C342.686 227.15 344.459 227.622 346.223 228.096C356.003 230.731 365.993 233.176 375.977 235.619L375.978 235.619L375.978 235.62L375.981 235.62C392.889 239.758 409.784 243.893 425.627 248.941C473.259 264.08 481.828 281.195 461.285 310.305C460.482 311.434 459.547 312.538 458.48 313.798L458.48 313.798L458.48 313.799C457.956 314.417 457.401 315.073 456.814 315.787C460.198 316.428 463.528 317.048 466.816 317.661L466.838 317.665C474.04 319.006 481.046 320.311 488.001 321.715C494.787 323.078 499.204 324.665 502.317 329.215C520.811 356.209 513.52 374.66 474.324 394.461C436.458 413.58 389.89 424.823 341.38 433.909C273.551 446.599 203.088 448.84 131.933 445.514C103.989 444.212 76.1438 442.316 47.0777 440.336L47.0724 440.336L47.0653 440.335L47.0553 440.335C33.2538 439.395 19.177 438.436 4.6838 437.513C20.8361 411.019 35.7909 386.502 51.4908 360.801L51.5706 360.759ZM50.0271 501.591C51.3615 498.616 52.5591 495.646 53.7492 492.695C56.451 485.994 59.1142 479.388 63.2523 473.051C68.388 465.162 60.3784 462.56 49.4417 460.514C44.0405 459.51 38.4215 458.823 32.3888 458.085L32.3884 458.084L32.3869 458.084L32.3822 458.084L32.3656 458.082L32.3578 458.081C29.4541 457.725 26.4545 457.358 23.3373 456.938C24.0679 456.821 24.5845 456.732 24.9668 456.666C25.6288 456.552 25.888 456.507 26.1579 456.507C45.1582 456.367 64.1563 456.207 83.1535 456.047L83.219 456.046C130.182 455.651 177.139 455.256 224.11 455.157C262.162 455.074 300.267 455.575 338.293 456.465C380.497 457.453 422.647 458.886 464.744 460.751C472.145 461.081 479.363 462.481 486.921 463.947L486.923 463.947C490.505 464.642 494.163 465.351 497.953 465.969C454.685 487.398 403.541 498.237 348.618 504.888C293.003 511.623 236.483 513.516 179.777 510.816C150.816 509.431 121.986 507.295 93.1577 505.159L93.1559 505.158L93.1541 505.158L93.1524 505.158C80.8469 504.246 68.5418 503.334 56.2272 502.481C54.8385 502.389 53.4963 502.164 52.1468 501.937L52.1452 501.937C51.4524 501.82 50.7576 501.704 50.0537 501.604L50.0271 501.591ZM454.242 202.512L454.149 202.48C443.306 198.778 432.548 195.105 421.795 191.431C421.981 191.125 422.161 190.816 422.34 190.506C422.52 190.197 422.7 189.887 422.886 189.581C423.772 189.495 424.658 189.409 425.544 189.323L425.563 189.321C448.736 187.074 472.034 184.814 495.505 188.593C498.831 189.121 501.998 193.992 501.279 196.552C499.963 201.261 497.51 205.885 495.139 210.356C494.204 212.12 493.28 213.861 492.445 215.573V215.559C479.514 211.141 466.821 206.807 454.242 202.512ZM48.4215 318.326C54.3315 317.5 60.3095 316.664 66.3919 316.288C54.6572 312.106 43.3596 308.087 32.0221 304.055C24.3861 301.339 16.7321 298.617 8.91435 295.833C7.36769 299.146 5.82103 302.465 4.30873 305.711C2.82886 308.887 1.38188 311.993 0 314.952C16.1386 322.839 32.0183 320.619 48.4215 318.326Z" fill="black"/>
</g>
<defs>
<clipPath id="clip0_2633_8457">
<rect width="512" height="512" fill="white"/>
</clipPath>
</defs>
</svg>
